<?xml version="1.0" encoding="UTF-8" standalone="no"?>
<svg
   xmlns:dc="http://purl.org/dc/elements/1.1/"
   xmlns:cc="http://creativecommons.org/ns#"
   xmlns:rdf="http://www.w3.org/1999/02/22-rdf-syntax-ns#"
   xmlns:svg="http://www.w3.org/2000/svg"
   xmlns="http://www.w3.org/2000/svg"
   xmlns:xlink="http://www.w3.org/1999/xlink"
   id="svg8"
   version="1.1"
   viewBox="0 0 126.47364 140.92244"
   height="140.92244mm"
   width="126.47364mm">
  <defs
     id="defs2">
    <linearGradient
       id="linearGradient1114">
      <stop
         style="stop-color:#20fc8f;stop-opacity:1;"
         offset="0"
         id="stop1110" />
      <stop
         id="stop1116"
         offset="0.2"
         style="stop-color:#20fc8f;stop-opacity:1" />
      <stop
         style="stop-color:#20fc8f;stop-opacity:0;"
         offset="1"
         id="stop1112" />
    </linearGradient>
    <linearGradient
       id="linearGradient1040">
      <stop
         id="stop1036"
         offset="0"
         style="stop-color:#20fc8f;stop-opacity:1;" />
      <stop
         id="stop1038"
         offset="1"
         style="stop-color:#20fc8f;stop-opacity:0;" />
    </linearGradient>
    <radialGradient
       spreadMethod="pad"
       gradientUnits="userSpaceOnUse"
       gradientTransform="matrix(1,2.0794029e-7,-2.3293857e-7,1.1202186,2.6911223e-5,-15.575414)"
       r="36.682739"
       fy="129.5589"
       fx="87.998489"
       cy="129.5589"
       cx="87.998489"
       id="radialGradient1042"
       xlink:href="#linearGradient1040" />
    <radialGradient
       gradientUnits="userSpaceOnUse"
       gradientTransform="matrix(1,0,0,1.1202187,0,-15.575404)"
       r="36.682739"
       fy="129.5589"
       fx="87.998489"
       cy="129.5589"
       cx="87.998489"
       id="radialGradient1064"
       xlink:href="#linearGradient1114" />
  </defs>
  <metadata
     id="metadata5">
    <rdf:RDF>
      <cc:Work
         rdf:about="">
        <dc:format>image/svg+xml</dc:format>
        <dc:type
           rdf:resource="http://purl.org/dc/dcmitype/StillImage" />
        <dc:title></dc:title>
      </cc:Work>
    </rdf:RDF>
  </metadata>
  <g
     transform="translate(-26.788015,-29.729148)"
     id="layer3" />
  <g
     transform="translate(-26.788015,-29.729148)"
     id="layer1">
    <path
       d="M 124.68123,129.5589 A 36.682741,41.09269 0 0 1 87.998493,170.65159 36.682741,41.09269 0 0 1 51.315752,129.5589 36.682741,41.09269 0 0 1 87.998493,88.466209 36.682741,41.09269 0 0 1 124.68123,129.5589 Z"
       style="opacity:0.4;fill:url(#radialGradient1064);fill-opacity:1;stroke:none;stroke-width:3.35937;stroke-linecap:round;stroke-linejoin:round;stroke-miterlimit:4;stroke-dasharray:none;stroke-dashoffset:188.976;stroke-opacity:1"
       id="path1023" />
    <path
       id="path833"
       d="m 150,56.895981 c -41.78296,31.966513 -76.399915,34.3281 -120,0 43.290478,-34.814451 79.01768,-32.273132 120,0 z"
       style="fill:#ffffff;fill-opacity:1;stroke:#383f51;stroke-width:4;stroke-linecap:butt;stroke-linejoin:round;stroke-miterlimit:4;stroke-dasharray:none;stroke-opacity:1" />
    <path
       d="M 114.59873,56.895981 A 24.532701,24.532712 0 0 1 90.06602,81.428691 24.532701,24.532712 0 0 1 65.533314,56.895981 24.532701,24.532712 0 0 1 90.06602,32.363269 24.532701,24.532712 0 0 1 114.59873,56.895981 Z"
       style="fill:#20fc8f;fill-opacity:1;stroke:#383f51;stroke-width:3.435;stroke-linejoin:round;stroke-miterlimit:4;stroke-dasharray:none;stroke-dashoffset:188.976;stroke-opacity:1"
       id="path847" />
    <path
       d="m 90,44.153671 a 12.695302,12.695302 0 0 0 -12.634373,12.694833 12.695302,12.695302 0 0 0 12.695349,12.695348 12.695302,12.695302 0 0 0 12.695354,-12.695348 12.695302,12.695302 0 0 0 -1.54771,-6.074048 5.5279014,5.5279014 0 0 1 -5.108736,3.41788 5.5279014,5.5279014 0 0 1 -5.527826,-5.527828 5.5279014,5.5279014 0 0 1 2.00401,-4.25917 12.695302,12.695302 0 0 0 -2.515092,-0.251667 12.695302,12.695302 0 0 0 -0.06098,0 z"
       style="opacity:1;fill:#383f51;fill-opacity:1;stroke:none;stroke-width:5.99099;stroke-linejoin:round;stroke-miterlimit:4;stroke-dasharray:none;stroke-dashoffset:188.976;stroke-opacity:1"
       id="path874" />
    <path
       id="path962"
       d="M 63.697047,105.98989 C 78.735924,96.733361 94.298939,91.847852 111.45568,104.12294"
       style="fill:none;stroke:#383f51;stroke-width:3.435;stroke-linecap:round;stroke-linejoin:miter;stroke-miterlimit:4;stroke-dasharray:none;stroke-opacity:1" />
    <path
       style="fill:none;stroke:#383f51;stroke-width:3.435;stroke-linecap:round;stroke-linejoin:miter;stroke-miterlimit:4;stroke-dasharray:none;stroke-opacity:1"
       d="M 60.552454,120.11095 C 75.195112,101.34124 99.124239,96.621834 116.61266,117.86938"
       id="path962-9" />
    <path
       style="fill:none;stroke:#383f51;stroke-width:3.435;stroke-linecap:round;stroke-linejoin:miter;stroke-miterlimit:4;stroke-dasharray:none;stroke-opacity:1"
       d="m 60.410712,129.18289 c 1.10287,-0.55157 5.929011,-1.10429 9.697761,-7.52801 12.169103,-20.74186 43.460727,-9.23059 38.401907,10.2058 -2.03428,7.81587 -2.43527,10.03123 5.02868,17.34605"
       id="path962-5" />
    <path
       style="fill:none;stroke:#383f51;stroke-width:3.435;stroke-linecap:round;stroke-linejoin:miter;stroke-miterlimit:4;stroke-dasharray:none;stroke-opacity:1"
       d="m 62.238525,139.2008 c 2.240649,-0.55187 12.16504,-7.00747 19.780224,-18.1599 8.534398,-12.49861 39.224301,5.54551 -13.457234,37.8376"
       id="path962-3" />
    <path
       style="fill:none;stroke:#383f51;stroke-width:3.435;stroke-linecap:round;stroke-linejoin:miter;stroke-miterlimit:4;stroke-dasharray:none;stroke-opacity:1"
       d="m 63.515824,150.79577 c 4.710534,-2.38337 18.350277,-11.9958 25.93051,-22.13593"
       id="path962-1" />
    <path
       style="fill:none;stroke:#383f51;stroke-width:3.435;stroke-linecap:round;stroke-linejoin:miter;stroke-miterlimit:4;stroke-dasharray:none;stroke-opacity:1"
       d="m 82.797457,158.4259 c 2.138844,-3.07729 11.848339,-7.44996 14.402231,2.43253"
       id="path962-96" />
    <path
       style="fill:none;stroke:#383f51;stroke-width:3.435;stroke-linecap:round;stroke-linejoin:miter;stroke-miterlimit:4;stroke-dasharray:none;stroke-opacity:1"
       d="m 115.00287,122.78364 c 1.42003,4.87104 1.37035,11.35147 0.0438,18.08262"
       id="path962-97" />
    <path
       style="fill:none;stroke:#383f51;stroke-width:3.435;stroke-linecap:round;stroke-linejoin:miter;stroke-miterlimit:4;stroke-dasharray:none;stroke-opacity:1"
       d="m 99.509913,143.00485 c -0.703534,11.4413 4.260357,13.74648 7.267927,15.70894"
       id="path962-7" />
  </g>
</svg>
