<?xml version="1.0" encoding="UTF-8" standalone="no"?>
<svg
   xmlns:dc="http://purl.org/dc/elements/1.1/"
   xmlns:cc="http://creativecommons.org/ns#"
   xmlns:rdf="http://www.w3.org/1999/02/22-rdf-syntax-ns#"
   xmlns:svg="http://www.w3.org/2000/svg"
   xmlns="http://www.w3.org/2000/svg"
   width="48.226086mm"
   height="46.200344mm"
   viewBox="0 0 48.226086 46.200344"
   version="1.1"
   id="svg849">
  <defs
     id="defs843">
    <marker
       style="overflow:visible"
       id="TriangleOutL"
       refX="0"
       refY="0"
       orient="auto">
      <path
         transform="scale(0.8)"
         style="fill:#000000;fill-opacity:1;fill-rule:evenodd;stroke:#000000;stroke-width:1pt;stroke-opacity:1"
         d="M 5.77,0 -2.88,5 V -5 Z"
         id="path1556" />
    </marker>
    <marker
       style="overflow:visible"
       id="Arrow2Lend"
       refX="0"
       refY="0"
       orient="auto">
      <path
         transform="matrix(-1.1,0,0,-1.1,-1.1,0)"
         d="M 8.7185878,4.0337352 -2.2072895,0.01601326 8.7185884,-4.0017078 c -1.7454984,2.3720609 -1.7354408,5.6174519 -6e-7,8.035443 z"
         style="fill:#000000;fill-opacity:1;fill-rule:evenodd;stroke:#000000;stroke-width:0.625;stroke-linejoin:round;stroke-opacity:1"
         id="path1435" />
    </marker>
    <marker
       style="overflow:visible"
       id="Arrow1Lend"
       refX="0"
       refY="0"
       orient="auto">
      <path
         transform="matrix(-0.8,0,0,-0.8,-10,0)"
         style="fill:#000000;fill-opacity:1;fill-rule:evenodd;stroke:#000000;stroke-width:1pt;stroke-opacity:1"
         d="M 0,0 5,-5 -12.5,0 5,5 Z"
         id="path1417" />
    </marker>
    <marker
       style="overflow:visible"
       id="Arrow1Lstart"
       refX="0"
       refY="0"
       orient="auto">
      <path
         transform="matrix(0.8,0,0,0.8,10,0)"
         style="fill-rule:evenodd;stroke:#000000;stroke-width:1pt"
         d="M 0,0 5,-5 -12.5,0 5,5 Z"
         id="path1414" />
    </marker>
  </defs>
  <metadata
     id="metadata846">
    <rdf:RDF>
      <cc:Work
         rdf:about="">
        <dc:format>image/svg+xml</dc:format>
        <dc:type
           rdf:resource="http://purl.org/dc/dcmitype/StillImage" />
        <dc:title></dc:title>
      </cc:Work>
    </rdf:RDF>
  </metadata>
  <g
     transform="translate(-57.056027,-73.960654)"
     id="layer1">
    <path
       d="m 57.250754,96.595069 h 8.882192 v 23.565501 h -8.882192 z"
       style="opacity:1;fill:#383f51;fill-opacity:1;stroke:none;stroke-width:0.1;stroke-linecap:round;stroke-linejoin:round;stroke-miterlimit:0;stroke-dasharray:none;stroke-opacity:1"
       id="rect1412" />
    <path
       id="rect1412-2"
       style="opacity:1;fill:#383f51;fill-opacity:1;stroke:none;stroke-width:1.75581;stroke-linecap:round;stroke-linejoin:round;stroke-miterlimit:0;stroke-dasharray:none;stroke-opacity:1"
       d="m 92.778214,87.31429 h 8.882196 v 32.84628 h -8.882196 z" />
    <path
       id="path1710"
       d="m 69.093237,89.816981 h 8.882178 v 9.3e-5 c 0,0.03935 0,30.343926 0,30.343926 h -8.882178 v -9.2e-4 c 0,-0.0388 0,-30.343099 0,-30.343099"
       style="fill:#383f51;fill-opacity:1;stroke:none;stroke-width:1.68759;stroke-linecap:round;stroke-linejoin:round;stroke-miterlimit:0;stroke-dasharray:none;stroke-opacity:1" />
    <path
       id="path1712"
       d="m 80.935757,93.571003 h 8.882178 v 1.62e-4 c 0,0.06897 0,26.589835 0,26.589835 h -8.882178 v -8.1e-4 c 0,-0.0688 0,-26.589187 0,-26.589187"
       style="fill:#383f51;fill-opacity:1;stroke:none;stroke-width:1.57976;stroke-linecap:round;stroke-linejoin:round;stroke-miterlimit:0;stroke-dasharray:none;stroke-opacity:1" />
    <path
       id="path1834"
       d="m 59.555923,96.158813 1.5,1.5 11.436488,-11.436489 9.363988,9.363988 1.52367,1.52367 16.326842,-16.326843 1.396339,1.92551 1.67896,-6.248076 -6.511394,1.415638 1.942551,1.400467 -14.8333,14.833302 -10.887656,-10.887656 -1.5,1.5 z"
       style="fill:#2196f3;fill-opacity:1;stroke:#ffffff;stroke-width:5;stroke-linecap:round;stroke-linejoin:round;stroke-miterlimit:4;stroke-dasharray:none;stroke-opacity:1;paint-order:stroke fill markers" />
  </g>
</svg>
