<?xml version="1.0" encoding="UTF-8" standalone="no"?>
<svg
   xmlns:osb="http://www.openswatchbook.org/uri/2009/osb"
   xmlns:dc="http://purl.org/dc/elements/1.1/"
   xmlns:cc="http://creativecommons.org/ns#"
   xmlns:rdf="http://www.w3.org/1999/02/22-rdf-syntax-ns#"
   xmlns:svg="http://www.w3.org/2000/svg"
   xmlns="http://www.w3.org/2000/svg"
   xmlns:xlink="http://www.w3.org/1999/xlink"
   id="svg4431"
   version="1.1"
   viewBox="0 0 263.23047 43.720234"
   height="43.720234mm"
   width="263.23047mm">
  <defs
     id="defs4425">
    <linearGradient
       gradientTransform="translate(-698.05917,-77.035063)"
       gradientUnits="userSpaceOnUse"
       y2="157.30064"
       x2="656.40228"
       y1="140.41196"
       x1="664.66211"
       id="linearGradient2596"
       xlink:href="#linearGradient2572" />
    <linearGradient
       id="linearGradient2572">
      <stop
         style="stop-color:#e3f2fd;stop-opacity:1"
         offset="0"
         id="stop2568" />
      <stop
         style="stop-color:#90caf9;stop-opacity:1"
         offset="1"
         id="stop2570" />
    </linearGradient>
    <linearGradient
       gradientTransform="translate(-698.05917,-77.035063)"
       gradientUnits="userSpaceOnUse"
       y2="132.84076"
       x2="690.93225"
       y1="151.20862"
       x1="694.901"
       id="linearGradient2610"
       xlink:href="#linearGradient2572" />
    <linearGradient
       gradientTransform="matrix(0.07000434,0,0,0.07000434,77.459688,-231.34146)"
       osb:paint="solid"
       id="linearGradient2350">
      <stop
         id="stop2348"
         offset="0"
         style="stop-color:#e3f2fd;stop-opacity:1;" />
    </linearGradient>
    <linearGradient
       gradientTransform="translate(-698.05917,-77.035063)"
       gradientUnits="userSpaceOnUse"
       y2="132.84076"
       x2="713.46228"
       y1="137.25722"
       x1="723.64874"
       id="linearGradient2642"
       xlink:href="#linearGradient2572" />
    <radialGradient
       gradientUnits="userSpaceOnUse"
       gradientTransform="matrix(1.864724,-1.6737435,1.7588027,1.9594888,-5932.4562,3743.1122)"
       r="45.611351"
       fy="566.47852"
       fx="2839.3359"
       cy="566.47852"
       cx="2839.3359"
       id="radialGradient2652"
       xlink:href="#linearGradient2572" />
    <linearGradient
       gradientTransform="matrix(0.26458333,0,0,0.26458333,-698.05917,-77.035063)"
       gradientUnits="userSpaceOnUse"
       y2="502.05664"
       x2="2913.332"
       y1="528.84845"
       x1="2955.042"
       id="linearGradient2660"
       xlink:href="#linearGradient2572" />
    <linearGradient
       gradientTransform="matrix(0.26458333,0,0,0.26458333,-698.05917,-77.035063)"
       gradientUnits="userSpaceOnUse"
       y2="602.48633"
       x2="3034.4277"
       y1="548.28711"
       x1="3062.8125"
       id="linearGradient2668"
       xlink:href="#linearGradient2572" />
    <linearGradient
       gradientTransform="matrix(0.26458333,0,0,0.26458333,-698.05917,-77.035063)"
       y2="630.90015"
       x2="3147.9644"
       y1="578.39783"
       x1="3208.4624"
       gradientUnits="userSpaceOnUse"
       id="linearGradient2686"
       xlink:href="#linearGradient2572" />
    <linearGradient
       gradientTransform="matrix(0.26458333,0,0,0.26458333,-698.05917,-77.035063)"
       gradientUnits="userSpaceOnUse"
       y2="601.47852"
       x2="3390.2754"
       y1="548.31445"
       x1="3419.0078"
       id="linearGradient2718"
       xlink:href="#linearGradient2572" />
    <linearGradient
       gradientTransform="matrix(0.26458333,0,0,0.26458333,-698.05917,-77.035063)"
       gradientUnits="userSpaceOnUse"
       y2="630.90039"
       x2="3475.7773"
       y1="615.30994"
       x1="3418.1047"
       id="linearGradient2726"
       xlink:href="#linearGradient2572" />
    <linearGradient
       gradientTransform="translate(-698.05917,-77.035063)"
       gradientUnits="userSpaceOnUse"
       y2="132.83565"
       x2="874.68243"
       y1="137.3844"
       x1="884.47205"
       id="linearGradient2710"
       xlink:href="#linearGradient2572" />
    <linearGradient
       gradientTransform="translate(-2480.8905,-465.67809)"
       gradientUnits="userSpaceOnUse"
       y2="630.87109"
       x2="3119.5801"
       y1="614.87244"
       x1="3063.2971"
       id="linearGradient2676"
       xlink:href="#linearGradient2572" />
    <linearGradient
       gradientUnits="userSpaceOnUse"
       y2="197.7189"
       x2="577.0025"
       y1="191.86923"
       x1="562.32031"
       gradientTransform="matrix(1.1844357,0,0,0.84428394,-698.05917,-77.035071)"
       id="linearGradient2556"
       xlink:href="#linearGradient2572" />
    <linearGradient
       gradientTransform="translate(-698.05917,-77.035063)"
       gradientUnits="userSpaceOnUse"
       y2="159.42053"
       x2="705.95215"
       y1="148.64392"
       x1="711.24384"
       id="linearGradient2634"
       xlink:href="#linearGradient2572" />
    <linearGradient
       gradientTransform="matrix(0.26458333,0,0,0.26458333,-698.05917,-77.035063)"
       gradientUnits="userSpaceOnUse"
       y2="630.91992"
       x2="2736.9551"
       y1="614.32001"
       x1="2696.9075"
       id="linearGradient2618"
       xlink:href="#linearGradient2572" />
    <linearGradient
       gradientTransform="matrix(0.26458333,0,0,0.26458333,-698.05917,-77.035063)"
       gradientUnits="userSpaceOnUse"
       y2="553.26562"
       x2="2708.5703"
       y1="602.53516"
       x1="2736.9551"
       id="linearGradient2626"
       xlink:href="#linearGradient2572" />
    <linearGradient
       gradientTransform="matrix(0.26458333,0,0,0.26458333,-698.05917,-77.035063)"
       gradientUnits="userSpaceOnUse"
       y2="602.51562"
       x2="3277.502"
       y1="555.92902"
       x1="3299.0735"
       id="linearGradient2702"
       xlink:href="#linearGradient2572" />
    <linearGradient
       gradientTransform="matrix(0.26458333,0,0,0.26458333,-698.05917,-77.035063)"
       gradientUnits="userSpaceOnUse"
       y2="630.90039"
       x2="3362.2402"
       y1="614.30133"
       x1="3306.1448"
       id="linearGradient2694"
       xlink:href="#linearGradient2572" />
    <linearGradient
       xlink:href="#linearGradient2572"
       id="linearGradient3487"
       gradientUnits="userSpaceOnUse"
       gradientTransform="translate(-2480.8905,-465.67808)"
       x1="3063.2971"
       y1="614.87244"
       x2="3119.5801"
       y2="630.87109" />
  </defs>
  <metadata
     id="metadata4428">
    <rdf:RDF>
      <cc:Work
         rdf:about="">
        <dc:format>image/svg+xml</dc:format>
        <dc:type
           rdf:resource="http://purl.org/dc/dcmitype/StillImage" />
        <dc:title></dc:title>
      </cc:Work>
    </rdf:RDF>
  </metadata>
  <g
     transform="translate(41.656902,-46.175597)"
     id="layer1">
    <path
       d="m -41.656902,46.175597 h 9.630001 v 34.089991 h -9.630001 z"
       style="fill:url(#linearGradient2596);fill-opacity:1;stroke:none;stroke-width:1.47135;stroke-linejoin:miter;stroke-miterlimit:4;stroke-dasharray:none;stroke-opacity:1"
       id="rect1683-9-1-5-7" />
    <path
       d="M -7.1269007,55.805697 H 0.38309833 V 89.895588 H -7.1269007 Z"
       style="fill:url(#linearGradient2610);fill-opacity:1;stroke-width:3.43747"
       id="rect1630-7-5" />
    <path
       d="m -7.1269007,55.805697 v 7.51014 a 7.5099698,7.5100003 0 0 1 7.44811903,-7.51014 z"
       style="fill:url(#linearGradient2350);fill-opacity:1;stroke-width:3.3537"
       id="rect908-1-0-1" />
    <path
       id="rect1009-9-4-2-4-3"
       style="fill:url(#linearGradient2642);fill-opacity:1;stroke-width:5.74037"
       d="m 15.403097,55.805697 h 15.910521 v 7.51 H 15.403097 Z" />
    <path
       id="rect1009-9-2-5-5"
       style="fill:url(#radialGradient2652);fill-opacity:1;stroke-width:31.7577"
       d="M 312.83398 36.378906 L 312.83398 165.22266 L 341.21875 165.22266 L 341.21875 110.99414 L 375.67188 110.99414 L 375.67188 165.22266 L 404.05664 165.22266 L 404.05664 36.378906 L 375.67188 36.378906 L 375.67188 82.609375 L 341.21875 82.609375 L 341.21875 36.378906 L 312.83398 36.378906 z "
       transform="matrix(0.26458333,0,0,0.26458333,-41.656902,46.175597)" />
    <path
       d="m 72.759908,55.800755 v 7.509618 h 8.51009 v 26.572539 h 7.51014 V 63.310373 h 8.50956 v -7.509618 z"
       style="fill:url(#linearGradient2660);fill-opacity:1;stroke-width:7.41847"
       id="rect1009-9-7-8-2-0-2" />
    <path
       d="m 112.30996,55.800239 v 5.29e-4 h -7.51014 v 34.089909 h 7.51014 v -14.34796 h 10.09912 V 68.03258 h -10.09912 v -4.722193 h 7.50962 7.51014 v -7.510134 h -7.51014 z"
       style="fill:url(#linearGradient2668);fill-opacity:1;stroke-width:8.40256"
       id="rect1009-9-7-8-6-7-5" />
    <path
       d="m 142.34999,55.800239 v 5.29e-4 h -7.51015 v 34.089909 h 7.51015 V 63.310373 l 7.98814,26.579775 h 3.75481 v -7.509621 l -7.98815,-26.580288 z m 11.74348,5.29e-4 v 34.089909 h 7.50961 V 55.800755 Z"
       style="fill:url(#linearGradient2686);fill-opacity:1;stroke-width:8.40256"
       id="rect1009-9-7-8-66-3-0" />
    <path
       d="m 199.04369,55.800755 v 34.089909 h 7.51014 V 75.549938 h 10.09859 V 68.039801 H 206.5533 v -4.728909 h 7.50962 7.51014 v -7.510137 h -7.51014 -7.50962 z"
       style="fill:url(#linearGradient2718);fill-opacity:1;stroke-width:8.39115"
       id="rect1009-9-7-8-6-4-8-9" />
    <path
       d="m 199.04369,74.895197 v 7.48533 7.510137 h 7.51014 7.50962 7.51012 v -7.510137 h -7.51012 -7.50962 a 7.5100003,7.5723636 0 0 1 -7.51014,-7.48533 z"
       style="fill:url(#linearGradient2726);fill-opacity:1;stroke-width:3.94383"
       id="rect1009-9-7-8-67-8-9-6" />
    <path
       d="m 176.62325,55.800587 14.91031,1e-5 v 7.51 h -14.91031 z"
       style="fill:url(#linearGradient2710);fill-opacity:1;stroke-width:5.78308"
       id="rect1009-9-4-2-7-9-8" />
    <g
       id="g3485">
      <path
         id="rect908-1-3-8-0-1-4-5-5-2-1"
         style="fill:url(#linearGradient3487);fill-opacity:1;stroke-width:12.7279"
         d="M 553.53711 108.42578 L 553.53711 136.80859 L 553.53906 165.19336 L 581.92188 165.19336 L 610.30469 165.19336 L 638.68945 165.19336 L 638.68945 136.80859 L 581.92188 136.80859 C 566.33688 136.80942 553.66625 124.13966 553.53711 108.42578 z "
         transform="matrix(0.26458333,0,0,0.26458333,-41.656902,46.175597)" />
    </g>
    <path
       d="m 65.249898,89.890598 v -7.510151 a 7.5723636,7.5100003 0 0 1 -7.509999,7.510151 z"
       style="fill:#e3f2fd;fill-opacity:1;stroke-width:3.36759"
       id="rect908-1-3-8-0-1-4-5-56-5-0-2" />
    <path
       d="m 41.11375,55.800597 v 7.51014 a 7.5723636,7.5100003 0 0 1 7.509999,-7.51014 z"
       style="fill:#e3f2fd;fill-opacity:1;stroke-width:3.36759"
       id="rect908-1-3-8-0-1-4-5-56-9-8-6" />
    <path
       d="m 72.759968,55.800527 v 7.51014 a 7.5723636,7.5100003 0 0 1 7.51001,-7.51014 z"
       style="fill:#e3f2fd;fill-opacity:1;stroke-width:3.36759"
       id="rect908-1-3-8-0-1-4-5-5-1-3-6-7-1-7-8" />
    <path
       d="m 134.83975,89.890598 h 7.51014 a 7.5100003,7.5723636 0 0 1 -7.51014,-7.51001 z"
       style="fill:#e3f2fd;fill-opacity:1;stroke-width:3.36759"
       id="rect908-1-3-7-34-9" />
    <path
       d="m -41.656862,70.635507 v 9.629901 c 0,6.0384 3.59149,9.630421 9.629911,9.630421 h 17.390159 v -9.630421 h -17.390159 c -6.038421,0 -9.629911,-3.59147 -9.629911,-9.629901 z"
       style="fill:url(#linearGradient2556);fill-opacity:1;stroke:none;stroke-width:1.47165;stroke-linejoin:miter;stroke-miterlimit:4;stroke-dasharray:none;stroke-opacity:1"
       id="rect1578-9-9-7-6" />
    <path
       d="m 15.403097,55.805177 c -4.130889,0.0139 -7.5102477,3.37223 -7.5101387,7.51014 v 19.07015 h 7.5101387 v -19.07015 a 7.5723636,7.5100003 0 0 1 7.484801,-7.50962 h -7.484801 z"
       style="fill:url(#linearGradient2634);fill-opacity:1;stroke-width:3.35087"
       id="rect908-5-4" />
    <path
       d="m 7.8930743,74.900364 v 7.485333 c 0.01402,4.130889 3.3722197,7.510235 7.5101447,7.510134 H 26.093523 V 82.385697 H 15.403219 A 7.5100003,7.5723636 0 0 1 7.8930743,74.900364 Z"
       style="fill:url(#linearGradient2618);fill-opacity:1;stroke-width:3.35087"
       id="rect908-6-0-4" />
    <path
       d="m 18.583378,69.349798 v 7.510137 h 7.510145 v 5.525762 a 7.5723636,7.5100003 0 0 1 -7.509615,7.510134 h 7.509615 c 4.130887,-0.01389 7.510225,-3.372226 7.510119,-7.510134 v -5.525762 c -0.01402,-4.130879 -3.37222,-7.510246 -7.510119,-7.510137 z"
       style="fill:url(#linearGradient2626);fill-opacity:1;stroke-width:3.35087"
       id="rect908-6-5-7-3" />
    <path
       d="m 176.62334,55.800755 c -4.1307,0.01389 -7.50996,3.372464 -7.51011,7.510137 v 19.069635 h 7.51011 v -19.069635 -5.29e-4 a 7.5723636,7.5100003 0 0 1 7.48483,-7.509618 z"
       style="fill:url(#linearGradient2702);fill-opacity:1;stroke-width:3.35087"
       id="rect908-39-7-7" />
    <path
       d="m 169.11323,74.870392 v 7.510135 c 0.014,4.13086 3.37222,7.510237 7.51011,7.510137 h 14.9102 v -7.510137 h -14.9102 a 7.5100003,7.5723636 0 0 1 -7.51011,-7.510135 z"
       style="fill:url(#linearGradient2694);fill-opacity:1;stroke-width:3.35087"
       id="rect908-6-6-3-0" />
  </g>
</svg>
